<svg width="768" height="813" viewBox="0 0 768 813" fill="none" xmlns="http://www.w3.org/2000/svg">
<g opacity="0.3" clip-path="url(#clip0_31_273)">
<rect x="0.709961" y="-7.62939e-06" width="1023.29" height="0.709633" fill="#FDEEE3"/>
<rect x="0.709961" y="36.1811" width="1023.29" height="0.709633" fill="#FDEEE3"/>
<rect x="0.709961" y="72.3623" width="1023.29" height="0.709633" fill="#FDEEE3"/>
<rect x="0.709961" y="108.543" width="1023.29" height="0.709633" fill="#FDEEE3"/>
<rect x="0.709961" y="144.725" width="1023.29" height="0.709633" fill="#FDEEE3"/>
<rect x="0.709961" y="180.906" width="1023.29" height="0.709633" fill="#FDEEE3"/>
<rect x="0.709961" y="217.087" width="1023.29" height="0.709633" fill="#FDEEE3"/>
<rect x="0.709961" y="253.268" width="1023.29" height="0.709633" fill="#FDEEE3"/>
<rect x="0.709961" y="289.449" width="1023.29" height="0.709633" fill="#FDEEE3"/>
<rect x="0.709961" y="325.63" width="1023.29" height="0.709633" fill="#FDEEE3"/>
<rect x="0.709961" y="361.811" width="1023.29" height="0.709633" fill="#FDEEE3"/>
<rect x="0.709961" y="397.992" width="1023.29" height="0.709633" fill="#FDEEE3"/>
<rect x="0.709961" y="434.174" width="1023.29" height="0.709633" fill="#FDEEE3"/>
<rect x="0.709961" y="470.355" width="1023.29" height="0.709633" fill="#FDEEE3"/>
<rect x="0.709961" y="506.536" width="1023.29" height="0.709633" fill="#FDEEE3"/>
<rect x="0.709961" y="542.717" width="1023.29" height="0.709633" fill="#FDEEE3"/>
<rect x="0.709961" y="578.898" width="1023.29" height="0.709633" fill="#FDEEE3"/>
<rect x="0.709961" y="615.079" width="1023.29" height="0.709633" fill="#FDEEE3"/>
<rect x="0.709961" y="651.26" width="1023.29" height="0.709633" fill="#FDEEE3"/>
<rect x="0.709961" y="687.441" width="1023.29" height="0.709633" fill="#FDEEE3"/>
<rect x="0.709961" y="723.623" width="1023.29" height="0.709633" fill="#FDEEE3"/>
<rect x="0.709961" y="759.804" width="1023.29" height="0.709633" fill="#FDEEE3"/>
<rect x="0.709961" y="795.985" width="1023.29" height="0.709633" fill="#FDEEE3"/>
</g>
<g opacity="0.2">
<rect width="1" height="813" fill="#FDEEE3"/>
<rect x="36" width="1" height="813" fill="#FDEEE3"/>
<rect x="73" width="1" height="813" fill="#FDEEE3"/>
<rect x="109" width="1" height="813" fill="#FDEEE3"/>
<rect x="146" width="1" height="813" fill="#FDEEE3"/>
<rect x="182" width="1" height="813" fill="#FDEEE3"/>
<rect x="219" width="1" height="813" fill="#FDEEE3"/>
<rect x="255" width="1" height="813" fill="#FDEEE3"/>
<rect x="292" width="1" height="813" fill="#FDEEE3"/>
<rect x="328" width="1" height="813" fill="#FDEEE3"/>
<rect x="365" width="1" height="813" fill="#FDEEE3"/>
<rect x="401" width="1" height="813" fill="#FDEEE3"/>
<rect x="438" width="1" height="813" fill="#FDEEE3"/>
<rect x="474" width="1" height="813" fill="#FDEEE3"/>
<rect x="510" width="1" height="813" fill="#FDEEE3"/>
<rect x="547" width="1" height="813" fill="#FDEEE3"/>
<rect x="583" width="1" height="813" fill="#FDEEE3"/>
<rect x="620" width="1" height="813" fill="#FDEEE3"/>
<rect x="656" width="1" height="813" fill="#FDEEE3"/>
<rect x="693" width="1" height="813" fill="#FDEEE3"/>
<rect x="729" width="1" height="813" fill="#FDEEE3"/>
<rect x="766" width="1" height="813" fill="#FDEEE3"/>
</g>
<defs>
<clipPath id="clip0_31_273">
<rect width="768" height="813" fill="white"/>
</clipPath>
</defs>
</svg>
