<svg width="1024" height="564" viewBox="0 0 1024 564" fill="none" xmlns="http://www.w3.org/2000/svg">
<g opacity="0.3" clip-path="url(#clip0_31_10)">
<rect x="0.709961" y="-7.62939e-06" width="1023.29" height="0.709633" fill="#FDEEE3"/>
<rect x="0.709961" y="36.1811" width="1023.29" height="0.709633" fill="#FDEEE3"/>
<rect x="0.709961" y="72.3623" width="1023.29" height="0.709633" fill="#FDEEE3"/>
<rect x="0.709961" y="108.543" width="1023.29" height="0.709633" fill="#FDEEE3"/>
<rect x="0.709961" y="144.725" width="1023.29" height="0.709633" fill="#FDEEE3"/>
<rect x="0.709961" y="180.906" width="1023.29" height="0.709633" fill="#FDEEE3"/>
<rect x="0.709961" y="217.087" width="1023.29" height="0.709633" fill="#FDEEE3"/>
<rect x="0.709961" y="253.268" width="1023.29" height="0.709633" fill="#FDEEE3"/>
<rect x="0.709961" y="289.449" width="1023.29" height="0.709633" fill="#FDEEE3"/>
<rect x="0.709961" y="325.63" width="1023.29" height="0.709633" fill="#FDEEE3"/>
<rect x="0.709961" y="361.811" width="1023.29" height="0.709633" fill="#FDEEE3"/>
<rect x="0.709961" y="397.992" width="1023.29" height="0.709633" fill="#FDEEE3"/>
<rect x="0.709961" y="434.174" width="1023.29" height="0.709633" fill="#FDEEE3"/>
<rect x="0.709961" y="470.355" width="1023.29" height="0.709633" fill="#FDEEE3"/>
<rect x="0.709961" y="506.536" width="1023.29" height="0.709633" fill="#FDEEE3"/>
<rect x="0.709961" y="542.717" width="1023.29" height="0.709633" fill="#FDEEE3"/>
</g>
<g opacity="0.2">
<rect width="0.978804" height="564" fill="#FDEEE3"/>
<rect x="36.46" width="0.978804" height="564" fill="#FDEEE3"/>
<rect x="72.9209" width="0.978804" height="564" fill="#FDEEE3"/>
<rect x="109.381" width="0.978804" height="564" fill="#FDEEE3"/>
<rect x="145.842" width="0.978804" height="564" fill="#FDEEE3"/>
<rect x="182.302" width="0.978804" height="564" fill="#FDEEE3"/>
<rect x="218.763" width="0.978804" height="564" fill="#FDEEE3"/>
<rect x="255.223" width="0.978804" height="564" fill="#FDEEE3"/>
<rect x="291.684" width="0.978804" height="564" fill="#FDEEE3"/>
<rect x="328.144" width="0.978804" height="564" fill="#FDEEE3"/>
<rect x="364.604" width="0.978804" height="564" fill="#FDEEE3"/>
<rect x="401.064" width="0.978804" height="564" fill="#FDEEE3"/>
<rect x="437.525" width="0.978804" height="564" fill="#FDEEE3"/>
<rect x="473.985" width="0.978804" height="564" fill="#FDEEE3"/>
<rect x="510.446" width="0.978804" height="564" fill="#FDEEE3"/>
<rect x="546.906" width="0.978804" height="564" fill="#FDEEE3"/>
<rect x="583.367" width="0.978804" height="564" fill="#FDEEE3"/>
<rect x="619.827" width="0.978804" height="564" fill="#FDEEE3"/>
<rect x="656.288" width="0.978804" height="564" fill="#FDEEE3"/>
<rect x="692.748" width="0.978804" height="564" fill="#FDEEE3"/>
<rect x="729.209" width="0.978804" height="564" fill="#FDEEE3"/>
<rect x="765.669" width="0.978804" height="564" fill="#FDEEE3"/>
<rect x="802.13" width="0.978804" height="564" fill="#FDEEE3"/>
<rect x="838.59" width="0.978804" height="564" fill="#FDEEE3"/>
<rect x="875.051" width="0.978804" height="564" fill="#FDEEE3"/>
<rect x="911.511" width="0.978804" height="564" fill="#FDEEE3"/>
<rect x="947.972" width="0.978804" height="564" fill="#FDEEE3"/>
<rect x="984.432" width="0.978804" height="564" fill="#FDEEE3"/>
<rect x="1020.89" width="0.978804" height="564" fill="#FDEEE3"/>
</g>
<defs>
<clipPath id="clip0_31_10">
<rect width="1023.29" height="564" fill="white" transform="translate(0.709961 -7.62939e-06)"/>
</clipPath>
</defs>
</svg>
