<svg width="1440" height="820" viewBox="0 0 1440 820" fill="none" xmlns="http://www.w3.org/2000/svg">
<g opacity="0.3" clip-path="url(#clip0_6016_9)">
<rect x="0.999756" width="1442" height="1.03141" fill="#FDEEE3"/>
<rect x="0.999756" y="52.602" width="1442" height="1.03141" fill="#FDEEE3"/>
<rect x="0.999756" y="105.204" width="1442" height="1.03141" fill="#FDEEE3"/>
<rect x="0.999756" y="157.806" width="1442" height="1.03141" fill="#FDEEE3"/>
<rect x="0.999756" y="210.408" width="1442" height="1.03141" fill="#FDEEE3"/>
<rect x="0.999756" y="263.01" width="1442" height="1.03141" fill="#FDEEE3"/>
<rect x="0.999756" y="315.612" width="1442" height="1.03141" fill="#FDEEE3"/>
<rect x="0.999756" y="368.214" width="1442" height="1.03141" fill="#FDEEE3"/>
<rect x="0.999756" y="420.816" width="1442" height="1.03141" fill="#FDEEE3"/>
<rect x="0.999756" y="473.418" width="1442" height="1.03141" fill="#FDEEE3"/>
<rect x="0.999756" y="526.02" width="1442" height="1.03141" fill="#FDEEE3"/>
<rect x="0.999756" y="578.622" width="1442" height="1.03141" fill="#FDEEE3"/>
<rect x="0.999756" y="631.224" width="1442" height="1.03141" fill="#FDEEE3"/>
<rect x="0.999756" y="683.826" width="1442" height="1.03141" fill="#FDEEE3"/>
<rect x="0.999756" y="736.428" width="1442" height="1.03141" fill="#FDEEE3"/>
<rect x="0.999756" y="789.031" width="1442" height="1.03141" fill="#FDEEE3"/>
</g>
<g opacity="0.2">
<rect width="1.37931" height="819.973" fill="#FDEEE3"/>
<rect x="51.3794" width="1.37931" height="819.973" fill="#FDEEE3"/>
<rect x="102.759" width="1.37931" height="819.973" fill="#FDEEE3"/>
<rect x="154.138" width="1.37931" height="819.973" fill="#FDEEE3"/>
<rect x="205.517" width="1.37931" height="819.973" fill="#FDEEE3"/>
<rect x="256.896" width="1.37931" height="819.973" fill="#FDEEE3"/>
<rect x="308.276" width="1.37931" height="819.973" fill="#FDEEE3"/>
<rect x="359.655" width="1.37931" height="819.973" fill="#FDEEE3"/>
<rect x="411.034" width="1.37931" height="819.973" fill="#FDEEE3"/>
<rect x="462.414" width="1.37931" height="819.973" fill="#FDEEE3"/>
<rect x="513.793" width="1.37931" height="819.973" fill="#FDEEE3"/>
<rect x="565.172" width="1.37931" height="819.973" fill="#FDEEE3"/>
<rect x="616.552" width="1.37931" height="819.973" fill="#FDEEE3"/>
<rect x="667.931" width="1.37931" height="819.973" fill="#FDEEE3"/>
<rect x="719.311" width="1.37931" height="819.973" fill="#FDEEE3"/>
<rect x="770.69" width="1.37931" height="819.973" fill="#FDEEE3"/>
<rect x="822.069" width="1.37931" height="819.973" fill="#FDEEE3"/>
<rect x="873.448" width="1.37931" height="819.973" fill="#FDEEE3"/>
<rect x="924.828" width="1.37931" height="819.973" fill="#FDEEE3"/>
<rect x="976.207" width="1.37931" height="819.973" fill="#FDEEE3"/>
<rect x="1027.59" width="1.37931" height="819.973" fill="#FDEEE3"/>
<rect x="1078.97" width="1.37931" height="819.973" fill="#FDEEE3"/>
<rect x="1130.34" width="1.37931" height="819.973" fill="#FDEEE3"/>
<rect x="1181.72" width="1.37931" height="819.973" fill="#FDEEE3"/>
<rect x="1233.1" width="1.37931" height="819.973" fill="#FDEEE3"/>
<rect x="1284.48" width="1.37931" height="819.973" fill="#FDEEE3"/>
<rect x="1335.86" width="1.37931" height="819.973" fill="#FDEEE3"/>
<rect x="1387.24" width="1.37931" height="819.973" fill="#FDEEE3"/>
</g>
<defs>
<clipPath id="clip0_6016_9">
<rect width="1439" height="790" fill="white" transform="translate(0.997803)"/>
</clipPath>
</defs>
</svg>
