<svg width="320" height="522" viewBox="0 0 320 522" fill="none" xmlns="http://www.w3.org/2000/svg">
<g opacity="0.3" clip-path="url(#clip0_33_552)">
<rect x="0.295898" y="-3.8147e-06" width="426.371" height="0.296771" fill="#FDEEE3"/>
<rect x="0.295898" y="15.1311" width="426.371" height="0.296771" fill="#FDEEE3"/>
<rect x="0.295898" y="30.2622" width="426.371" height="0.296771" fill="#FDEEE3"/>
<rect x="0.295898" y="45.3933" width="426.371" height="0.296771" fill="#FDEEE3"/>
<rect x="0.295898" y="60.5244" width="426.371" height="0.296771" fill="#FDEEE3"/>
<rect x="0.295898" y="75.6555" width="426.371" height="0.296771" fill="#FDEEE3"/>
<rect x="0.295898" y="90.7866" width="426.371" height="0.296771" fill="#FDEEE3"/>
<rect x="0.295898" y="105.918" width="426.371" height="0.296771" fill="#FDEEE3"/>
<rect x="0.295898" y="121.049" width="426.371" height="0.296771" fill="#FDEEE3"/>
<rect x="0.295898" y="136.18" width="426.371" height="0.296771" fill="#FDEEE3"/>
<rect x="0.295898" y="151.311" width="426.371" height="0.296771" fill="#FDEEE3"/>
<rect x="0.295898" y="166.442" width="426.371" height="0.296771" fill="#FDEEE3"/>
<rect x="0.295898" y="181.573" width="426.371" height="0.296771" fill="#FDEEE3"/>
<rect x="0.295898" y="196.704" width="426.371" height="0.296771" fill="#FDEEE3"/>
<rect x="0.295898" y="211.835" width="426.371" height="0.296771" fill="#FDEEE3"/>
<rect x="0.295898" y="226.966" width="426.371" height="0.296771" fill="#FDEEE3"/>
<rect x="0.295898" y="242.098" width="426.371" height="0.296771" fill="#FDEEE3"/>
<rect x="0.295898" y="257.229" width="426.371" height="0.296771" fill="#FDEEE3"/>
<rect x="0.295898" y="272.36" width="426.371" height="0.296771" fill="#FDEEE3"/>
<rect x="0.295898" y="287.491" width="426.371" height="0.296771" fill="#FDEEE3"/>
<rect x="0.295898" y="302.622" width="426.371" height="0.296771" fill="#FDEEE3"/>
<rect x="0.295898" y="317.753" width="426.371" height="0.296771" fill="#FDEEE3"/>
<rect x="0.295898" y="439" width="426.371" height="0.296771" fill="#FDEEE3"/>
<rect x="0.295898" y="332.884" width="426.371" height="0.296771" fill="#FDEEE3"/>
<rect x="0.295898" y="454.131" width="426.371" height="0.296771" fill="#FDEEE3"/>
<rect x="0.295898" y="348.015" width="426.371" height="0.296771" fill="#FDEEE3"/>
<rect x="0.295898" y="469.262" width="426.371" height="0.296771" fill="#FDEEE3"/>
<rect x="0.295898" y="363.146" width="426.371" height="0.296771" fill="#FDEEE3"/>
<rect x="0.295898" y="484.393" width="426.371" height="0.296771" fill="#FDEEE3"/>
<rect x="0.295898" y="378.278" width="426.371" height="0.296771" fill="#FDEEE3"/>
<rect x="0.295898" y="499.524" width="426.371" height="0.296771" fill="#FDEEE3"/>
<rect x="0.295898" y="393.409" width="426.371" height="0.296771" fill="#FDEEE3"/>
<rect x="0.295898" y="514.656" width="426.371" height="0.296771" fill="#FDEEE3"/>
<rect x="0.295898" y="408.54" width="426.371" height="0.296771" fill="#FDEEE3"/>
<rect x="0.295898" y="423.671" width="426.371" height="0.296771" fill="#FDEEE3"/>
</g>
<g opacity="0.2">
<rect width="0.416667" height="340" fill="#FDEEE3"/>
<rect x="15" width="0.5" height="522" fill="#FDEEE3"/>
<rect x="30" width="0.5" height="522" fill="#FDEEE3"/>
<rect x="45" width="0.5" height="522" fill="#FDEEE3"/>
<rect x="61" width="0.5" height="522" fill="#FDEEE3"/>
<rect x="76" width="0.5" height="522" fill="#FDEEE3"/>
<rect x="91" width="0.5" height="522" fill="#FDEEE3"/>
<rect x="106" width="0.5" height="522" fill="#FDEEE3"/>
<rect x="122" width="0.5" height="522" fill="#FDEEE3"/>
<rect x="137" width="0.5" height="522" fill="#FDEEE3"/>
<rect x="152" width="0.5" height="522" fill="#FDEEE3"/>
<rect x="167" width="0.5" height="522" fill="#FDEEE3"/>
<rect x="183" width="0.5" height="522" fill="#FDEEE3"/>
<rect x="198" width="0.5" height="522" fill="#FDEEE3"/>
<rect x="213" width="0.5" height="522" fill="#FDEEE3"/>
<rect x="228" width="0.5" height="522" fill="#FDEEE3"/>
<rect x="243" width="0.5" height="522" fill="#FDEEE3"/>
<rect x="258" width="0.5" height="522" fill="#FDEEE3"/>
<rect x="273" width="0.5" height="522" fill="#FDEEE3"/>
<rect x="289" width="0.5" height="522" fill="#FDEEE3"/>
<rect x="304" width="0.5" height="522" fill="#FDEEE3"/>
<rect x="319.167" width="0.416667" height="340" fill="#FDEEE3"/>
</g>
<defs>
<clipPath id="clip0_33_552">
<rect width="320" height="522" fill="white"/>
</clipPath>
</defs>
</svg>
