<svg xmlns="http://www.w3.org/2000/svg" width="320" height="522" fill="none" viewBox="0 0 320 522"><g fill="#FDEEE3" clip-path="url(#a)" opacity="0.3"><path d="M.296 0h426.37v.297H.297zm0 15.131h426.37v.297H.297zm0 15.131h426.37v.297H.297zm0 15.131h426.37v.297H.297zm0 15.131h426.37v.297H.297zm0 15.132h426.37v.296H.297zm0 15.131h426.37v.296H.297zm0 15.131h426.37v.297H.297zm0 15.131h426.37v.297H.297zm0 15.131h426.37v.297H.297zm0 15.131h426.37v.297H.297zm0 15.131h426.37v.297H.297zm0 15.131h426.37v.297H.297zm0 15.131h426.37v.297H.297zm0 15.131h426.37v.297H.297zm0 15.131h426.37v.297H.297zm0 15.132h426.37v.297H.297zm0 15.131h426.37v.297H.297zm0 15.131h426.37v.297H.297zm0 15.131h426.37v.297H.297zm0 15.131h426.37v.297H.297zm0 15.131h426.37v.297H.297zM.296 439h426.37v.297H.297zm0-106.116h426.37v.297H.297zm0 121.247h426.37v.297H.297zm0-106.116h426.37v.297H.297zm0 121.247h426.37v.297H.297zm0-106.116h426.37v.297H.297zm0 121.247h426.37v.297H.297zm0-106.115h426.37v.297H.297zm0 121.246h426.37v.297H.297zm0-106.115h426.37v.297H.297zm0 121.247h426.37v.297H.297zm0-106.116h426.37v.297H.297zm0 15.131h426.37v.297H.297z"/></g><path fill="#FDEEE3" d="M0 0h.417v340H0zm15 0h.5v522H15zm15 0h.5v522H30zm15 0h.5v522H45zm16 0h.5v522H61zm15 0h.5v522H76zm15 0h.5v522H91zm15 0h.5v522h-.5zm16 0h.5v522h-.5zm15 0h.5v522h-.5zm15 0h.5v522h-.5zm15 0h.5v522h-.5zm16 0h.5v522h-.5zm15 0h.5v522h-.5zm15 0h.5v522h-.5zm15 0h.5v522h-.5zm15 0h.5v522h-.5zm15 0h.5v522h-.5zm15 0h.5v522h-.5zm16 0h.5v522h-.5zm15 0h.5v522h-.5zm15.167 0h.417v340h-.417z" opacity="0.2"/><defs><clipPath id="a"><path fill="#fff" d="M0 0h320v522H0z"/></clipPath></defs></svg>